<?xml version="1.0" encoding="UTF-8"?>
<svg width="16" height="16" viewBox="0 0 16 16" fill="none" xmlns="http://www.w3.org/2000/svg">
  <path d="M2.66667 11.3333C2.66667 11.7015 2.96515 12 3.33333 12H12.6667C13.0349 12 13.3333 11.7015 13.3333 11.3333C13.3333 10.9651 13.0349 10.6667 12.6667 10.6667H3.33333C2.96515 10.6667 2.66667 10.9651 2.66667 11.3333Z" fill="currentColor"/>
  <path d="M2.66667 4.66667C2.66667 5.03485 2.96515 5.33333 3.33333 5.33333H12.6667C13.0349 5.33333 13.3333 5.03485 13.3333 4.66667C13.3333 4.29848 13.0349 4 12.6667 4H3.33333C2.96515 4 2.66667 4.29848 2.66667 4.66667Z" fill="currentColor"/>
  <path d="M8.66667 8C8.66667 8.36819 8.96515 8.66667 9.33333 8.66667H12.6667C13.0349 8.66667 13.3333 8.36819 13.3333 8C13.3333 7.63181 13.0349 7.33333 12.6667 7.33333H9.33333C8.96515 7.33333 8.66667 7.63181 8.66667 8Z" fill="currentColor"/>
</svg> 